<?xml version="1.0" encoding="UTF-8"?>
<svg xmlns="http://www.w3.org/2000/svg" xmlns:xlink="http://www.w3.org/1999/xlink" viewBox="0 0 96 96" width="96px" height="96px">
<g id="surface13152328">
<path style=" stroke:none;fill-rule:nonzero;fill:rgb(0%,50.588238%,98.431373%);fill-opacity:1;" d="M 44 12 C 41.792969 12 40 13.792969 40 16 L 40 24 C 40 26.207031 41.792969 28 44 28 L 52 28 C 54.207031 28 56 26.207031 56 24 L 56 16 C 56 13.792969 54.207031 12 52 12 Z M 44 40 C 41.792969 40 40 41.792969 40 44 L 40 52 C 40 54.207031 41.792969 56 44 56 L 52 56 C 54.207031 56 56 54.207031 56 52 L 56 44 C 56 41.792969 54.207031 40 52 40 Z M 44 68 C 41.792969 68 40 69.792969 40 72 L 40 80 C 40 82.207031 41.792969 84 44 84 L 52 84 C 54.207031 84 56 82.207031 56 80 L 56 72 C 56 69.792969 54.207031 68 52 68 Z M 44 68 "/>
</g>
</svg>
