<?xml version="1.0" encoding="UTF-8"?>
<svg xmlns="http://www.w3.org/2000/svg" xmlns:xlink="http://www.w3.org/1999/xlink" viewBox="0 0 192 192" width="192px" height="192px">
<g id="surface143816600">
<path style=" stroke:none;fill-rule:nonzero;fill:rgb(18.039216%,74.117649%,52.156866%);fill-opacity:1;" d="M 119.578125 16.03125 C 118.226562 15.980469 116.863281 16.253906 115.671875 16.84375 L 96 26.46875 L 76.328125 16.84375 C 72.472656 14.964844 67.828125 16.449219 65.78125 20.203125 L 55.125 39.75 L 33.546875 43.53125 C 29.339844 44.265625 26.457031 48.199219 27 52.4375 L 29.859375 74.515625 L 14.625 90.25 C 11.648438 93.320312 11.625 98.199219 14.5625 101.3125 L 29.859375 117.484375 L 26.796875 139.171875 C 26.195312 143.410156 29.035156 147.363281 33.234375 148.15625 L 55.125 152.25 L 65.390625 171.59375 C 67.390625 175.378906 71.988281 176.910156 75.875 175.078125 L 95.984375 165.53125 L 96 165.53125 L 115.671875 175.15625 C 116.800781 175.707031 117.996094 175.96875 119.171875 175.96875 C 122.019531 175.96875 124.761719 174.460938 126.203125 171.8125 L 136.859375 152.265625 L 158.4375 148.46875 C 162.644531 147.734375 165.527344 143.800781 164.984375 139.5625 L 162.140625 117.5 L 177.359375 101.75 C 180.335938 98.679688 180.359375 93.816406 177.421875 90.703125 L 162.140625 74.515625 L 165.203125 52.828125 C 165.804688 48.589844 162.949219 44.636719 158.75 43.84375 L 136.875 39.75 L 126.609375 20.40625 C 125.921875 19.109375 124.664062 17.878906 123.40625 17.125 C 122.261719 16.445312 120.929688 16.082031 119.578125 16.03125 Z M 115.96875 34.484375 L 124.5625 50.703125 C 125.722656 52.886719 127.816406 54.402344 130.25 54.828125 L 148.28125 58.15625 L 145.75 76.15625 C 145.40625 78.597656 146.1875 81.058594 147.90625 82.828125 L 160.53125 96.125 L 150.625 106.375 L 147.90625 109.1875 C 146.195312 110.957031 145.40625 113.417969 145.75 115.859375 L 148.140625 134.03125 L 130.25 137.171875 C 127.816406 137.605469 125.738281 139.121094 124.578125 141.296875 L 115.828125 157.4375 L 99.5 149.453125 C 98.394531 148.917969 97.199219 148.640625 96 148.640625 C 94.800781 148.640625 93.597656 148.910156 92.484375 149.453125 L 75.9375 157.359375 L 67.421875 141.296875 C 66.261719 139.113281 64.183594 137.597656 61.75 137.171875 L 43.71875 133.84375 L 46.25 115.875 C 46.601562 113.425781 45.804688 110.957031 44.078125 109.171875 L 31.453125 95.890625 L 44.078125 82.84375 C 45.796875 81.058594 46.601562 78.589844 46.25 76.140625 L 43.84375 57.96875 L 61.75 54.828125 C 64.175781 54.402344 66.261719 52.886719 67.421875 50.703125 L 76.15625 34.5625 L 92.484375 42.546875 C 94.699219 43.625 97.285156 43.625 99.5 42.546875 Z M 122.34375 74.34375 L 88 108.6875 L 73.65625 94.34375 L 62.34375 105.65625 L 88 131.3125 L 133.65625 85.65625 Z M 122.34375 74.34375 "/>
</g>
</svg>
