<svg fill="#808c9f" xmlns="http://www.w3.org/2000/svg"  viewBox="0 0 24 24" width="96px" height="96px"><path d="M 12 2 C 6.4886661 2 2 6.4886661 2 12 C 2 17.511334 6.4886661 22 12 22 C 14.246784 22 16.328364 21.255323 18 20 L 20 22 L 20 17 L 15 17 L 16.5625 18.5625 C 15.268304 19.464614 13.702023 20 12 20 C 7.5693339 20 4 16.430666 4 12 C 4 7.5693339 7.5693339 4 12 4 C 16.430666 4 20 7.5693339 20 12 L 22 12 C 22 6.4886661 17.511334 2 12 2 z M 11 6 L 11 13 L 16 13 L 16 11 L 13 11 L 13 6 L 11 6 z"/></svg>