<?xml version="1.0"?><svg fill="#000000" xmlns="http://www.w3.org/2000/svg"  viewBox="0 0 24 24" width="24px" height="24px">    <path d="M 6 3 C 4.346 3 3 4.346 3 6 L 3 19 C 3 20.103 3.897 21 5 21 L 19 21 C 20.103 21 21 20.103 21 19 L 21 9 C 21 7.897 20.103 7 19 7 L 9 7 L 8 7 L 6 7 C 5.448 7 5 6.551 5 6 C 5 5.449 5.448 5 6 5 L 20 5 L 20 3 L 6 3 z M 5 8.8164062 C 5.3143909 8.9285627 5.6476094 9 6 9 L 8 9 L 9 9 L 19 9 L 19 19 L 5 19 L 5 8.8164062 z M 16 13 C 15.448 13 15 13.448 15 14 C 15 14.552 15.448 15 16 15 C 16.552 15 17 14.552 17 14 C 17 13.448 16.552 13 16 13 z"/></svg>