<?xml version="1.0"?><svg fill="#000000" xmlns="http://www.w3.org/2000/svg"  viewBox="0 0 24 24" width="24px" height="24px">    <path d="M 4 2 A 2 2 0 0 0 2 4 A 2 2 0 0 0 4 6 A 2 2 0 0 0 5.7304688 5 L 20 5 L 20 11 L 16 11 L 16 8.5351562 C 16 8.1631563 15.794844 7.8223906 15.464844 7.6503906 C 15.135844 7.4783906 14.736641 7.5018437 14.431641 7.7148438 L 9.4316406 11.177734 C 9.1616406 11.364734 9 11.672 9 12 C 9 12.328 9.1616406 12.635266 9.4316406 12.822266 L 14.431641 16.285156 C 14.601641 16.403156 14.8 16.464844 15 16.464844 C 15.159 16.464844 15.318844 16.425609 15.464844 16.349609 C 15.794844 16.176609 16 15.836844 16 15.464844 L 16 13 L 22 13 L 22 3 L 5.7285156 3 A 2 2 0 0 0 4 2 z M 14 10.445312 L 14 13.554688 L 11.755859 12 L 14 10.445312 z M 2 11 L 2 13 L 4 13 L 4 11 L 2 11 z M 6 11 L 6 13 L 8 13 L 8 11 L 6 11 z M 2 15 L 2 17 L 4 17 L 4 15 L 2 15 z M 20 18 A 2 2 0 0 0 18 20 A 2 2 0 0 0 20 22 A 2 2 0 0 0 22 20 A 2 2 0 0 0 20 18 z M 2 19 L 2 21 L 4 21 L 4 19 L 2 19 z M 6 19 L 6 21 L 8 21 L 8 19 L 6 19 z M 10 19 L 10 21 L 12 21 L 12 19 L 10 19 z M 14 19 L 14 21 L 16 21 L 16 19 L 14 19 z"/></svg>