<svg xmlns="http://www.w3.org/2000/svg"  viewBox="0 0 24 24" width="24px" height="24px"><path d="M 3 3 L 3 7 L 5 7 L 5 5 L 7 5 L 7 3 L 3 3 z M 17 3 L 17 5 L 19 5 L 19 7 L 21 7 L 21 3 L 17 3 z M 12 5 C 10.35503 5 9 6.3550302 9 8 C 9 9.6449698 10.35503 11 12 11 C 13.64497 11 15 9.6449698 15 8 C 15 6.3550302 13.64497 5 12 5 z M 12 7 C 12.56503 7 13 7.4349698 13 8 C 13 8.5650302 12.56503 9 12 9 C 11.43497 9 11 8.5650302 11 8 C 11 7.4349698 11.43497 7 12 7 z M 12 12 C 10.331 12 7 12.837 7 14.5 L 7 17 L 17 17 L 17 14.5 C 17 12.837 13.669 12 12 12 z M 12 14 C 13.06 14 14.506 14.433922 15 14.794922 L 15 15 L 9 15 L 9 14.794922 C 9.494 14.433922 10.94 14 12 14 z M 3 17 L 3 21 L 7 21 L 7 19 L 5 19 L 5 17 L 3 17 z M 19 17 L 19 19 L 17 19 L 17 21 L 21 21 L 21 17 L 19 17 z"/></svg>