<svg fill="#808c9f" xmlns="http://www.w3.org/2000/svg"  viewBox="0 0 24 24" width="96px" height="96px"><path d="M 5 3 L 5 5 L 7 5 L 7 6.34375 C 7 7.6692803 7.526238 8.9415505 8.4648438 9.8789062 L 10.585938 12 L 8.4648438 14.121094 C 7.526238 15.05845 7 16.33072 7 17.65625 L 7 19 L 5 19 L 5 21 L 19 21 L 19 19 L 17 19 L 17 17.65625 C 17 16.330841 16.472461 15.058398 15.535156 14.121094 L 13.414062 12 L 15.535156 9.8789062 C 16.473212 8.9408509 17 7.6692803 17 6.34375 L 17 5 L 19 5 L 19 3 L 5 3 z M 9 5 L 15 5 L 15 6.34375 C 15 7.1402197 14.685038 7.900899 14.121094 8.4648438 L 13.585938 9 L 10.416016 9 L 9.8789062 8.4628906 C 9.315512 7.9002464 9 7.1402197 9 6.34375 L 9 5 z M 12 13.414062 L 14.121094 15.535156 C 14.263869 15.677931 14.390102 15.834112 14.5 16 L 9.5 16 C 9.6097094 15.834991 9.7363689 15.679457 9.8789062 15.537109 L 12 13.414062 z"/></svg>