<?xml version="1.0"?><svg fill="#000000" xmlns="http://www.w3.org/2000/svg"  viewBox="0 0 24 24" width="24px" height="24px">    <path d="M 5 3 C 3.9069372 3 3 3.9069372 3 5 L 3 19 C 3 20.093063 3.9069372 21 5 21 L 15 21 L 15 19 L 5 19 L 5 5 L 19 5 L 19 9 L 21 9 L 21 5 C 21 3.9069372 20.093063 3 19 3 L 5 3 z M 9 7 L 9 9 L 15 9 L 15 7 L 9 7 z M 19.550781 11.300781 L 19.550781 12.728516 C 19.211781 12.771516 17.314453 13.127969 17.314453 15.417969 C 17.314453 18.758969 20.773438 17.769047 20.773438 19.998047 C 20.773437 21.114047 20.051297 21.142578 19.904297 21.142578 C 19.770297 21.142578 18.890625 21.213859 18.890625 19.505859 L 17 19.505859 C 17 22.397859 19.098156 22.626922 19.410156 22.669922 L 19.410156 24 L 20.412109 24 L 20.412109 22.669922 C 20.750109 22.627922 22.662109 22.314328 22.662109 19.986328 C 22.662109 16.780328 19.204125 17.393734 19.203125 15.427734 C 19.203125 14.300734 19.823031 14.265625 19.957031 14.265625 C 20.202031 14.265625 20.785156 14.480516 20.785156 15.853516 L 22.675781 15.853516 C 22.675781 13.226516 20.879594 12.816859 20.558594 12.755859 L 20.558594 11.300781 L 19.550781 11.300781 z"/></svg>