<svg xmlns="http://www.w3.org/2000/svg"  viewBox="0 0 24 24" width="24px" height="24px"><path d="M 4 3 A 2 2 0 0 0 3.6132812 3.0390625 C 3.6027047 3.0411798 3.5925496 3.0445889 3.5820312 3.046875 A 2 2 0 0 0 3.2324219 3.15625 C 3.227264 3.1584265 3.2219333 3.1598907 3.2167969 3.1621094 A 2 2 0 0 0 2 5 L 2 19 A 2 2 0 0 0 2.0390625 19.386719 C 2.0411798 19.397295 2.0445889 19.40745 2.046875 19.417969 A 2 2 0 0 0 2.15625 19.767578 C 2.1584265 19.772736 2.1598907 19.778067 2.1621094 19.783203 A 2 2 0 0 0 3.5996094 20.958984 A 2 2 0 0 0 4 21 L 9 21 L 9 19 L 6 19 A 2 2 0 0 0 4 17 L 4 7 A 2 2 0 0 0 6 5 L 9 5 L 9 3 L 4 3 z M 11 3 L 11 5 L 13 5 L 13 3 L 11 3 z M 15 3 L 15 5 L 18 5 A 2 2 0 0 0 20 7 L 20 17 A 2 2 0 0 0 18 19 L 15 19 L 15 21 L 20 21 A 2 2 0 0 0 20.386719 20.960938 C 20.397295 20.95882 20.40745 20.955411 20.417969 20.953125 A 2 2 0 0 0 22 19 L 22 5 A 2 2 0 0 0 21.960938 4.6132812 C 21.95881 4.602689 21.955423 4.5925658 21.953125 4.5820312 A 2 2 0 0 0 20 3 L 15 3 z M 11 7 L 11 9 L 13 9 L 13 7 L 11 7 z M 6 9 L 6 12 L 9 12 L 9 9 L 6 9 z M 15 9 L 15 12 L 18 12 L 18 9 L 15 9 z M 11 11 L 11 13 L 13 13 L 13 11 L 11 11 z M 6 14 L 6 16 L 9 16 L 9 14 L 6 14 z M 15 14 L 15 16 L 18 16 L 18 14 L 15 14 z M 11 15 L 11 17 L 13 17 L 13 15 L 11 15 z M 11 19 L 11 21 L 13 21 L 13 19 L 11 19 z"/></svg>