<?xml version="1.0"?><svg xmlns="http://www.w3.org/2000/svg"  viewBox="0 0 24 24" width="24px" height="24px">    <path d="M 6 2 C 4.897 2 4 2.897 4 4 L 4 20 C 4 21.103 4.897 22 6 22 L 12.683594 22 C 12.387594 21.378 12.181078 20.707 12.080078 20 L 6 20 L 6 4 L 9 4 L 9 2 L 6 2 z M 11 2 L 11 4 L 13 4 L 13 2 L 11 2 z M 15 2 L 15 4 L 18 4 L 18 12.080078 C 18.327 12.033078 18.66 12 19 12 C 19.34 12 19.673 12.033078 20 12.080078 L 20 4 C 20 2.897 19.103 2 18 2 L 15 2 z M 11 5 L 11 7 L 13 7 L 13 5 L 11 5 z M 10.990234 8 L 10.691406 8.3847656 C 10.691406 8.3847656 10.287016 8.8994699 9.8828125 9.5683594 C 9.4786092 10.237249 9 11.001346 9 12 C 9 13.64497 10.35503 15 12 15 C 13.64497 15 15 13.64497 15 12 C 15 10.990185 14.506272 10.227742 14.091797 9.5585938 C 13.677322 8.8894459 13.265625 8.375 13.265625 8.375 L 12.964844 8 L 12.484375 8 L 10.990234 8 z M 11.986328 10.029297 C 12.11894 10.207881 12.189962 10.284215 12.392578 10.611328 C 12.736103 11.16593 13 11.904815 13 12 C 13 12.56503 12.56503 13 12 13 C 11.43497 13 11 12.56503 11 12 C 11 11.893654 11.260406 11.158376 11.595703 10.603516 C 11.790559 10.281062 11.856896 10.208285 11.986328 10.029297 z M 19 14 C 16.239 14 14 16.239 14 19 C 14 21.761 16.239 24 19 24 C 21.761 24 24 21.761 24 19 C 24 16.239 21.761 14 19 14 z M 18 16 L 20 16 L 20 18 L 22 18 L 22 20 L 20 20 L 20 22 L 18 22 L 18 20 L 16 20 L 16 18 L 18 18 L 18 16 z"/></svg>