<?xml version="1.0" encoding="UTF-8"?>
<svg xmlns="http://www.w3.org/2000/svg" xmlns:xlink="http://www.w3.org/1999/xlink" viewBox="0 0 192 192" width="192px" height="192px">
<g id="surface146880811">
<path style=" stroke:none;fill-rule:nonzero;fill:rgb(0%,50.588238%,98.431373%);fill-opacity:1;" d="M 96 16 C 51.816406 16 16 51.816406 16 96 C 16 140.183594 51.816406 176 96 176 C 140.183594 176 176 140.183594 176 96 C 176 51.816406 140.183594 16 96 16 Z M 96 32 C 131.34375 32 160 60.65625 160 96 C 160 108.777344 156.203125 120.648438 149.75 130.640625 L 143.59375 125.875 C 131.179688 116.300781 108.296875 112 96 112 C 83.703125 112 60.8125 116.300781 48.40625 125.875 L 42.25 130.65625 C 35.792969 120.664062 32 108.78125 32 96 C 32 60.65625 60.65625 32 96 32 Z M 96 46 C 81.664062 46 70 57.664062 70 72 C 70 86.335938 81.664062 98 96 98 C 110.335938 98 122 86.335938 122 72 C 122 57.664062 110.335938 46 96 46 Z M 96 62 C 101.511719 62 106 66.488281 106 72 C 106 77.511719 101.511719 82 96 82 C 90.488281 82 86 77.511719 86 72 C 86 66.488281 90.488281 62 96 62 Z M 96 128 C 120.804688 128 134.144531 137.347656 140.390625 142.03125 C 128.878906 153.132812 113.253906 160 96 160 C 78.746094 160 63.121094 153.132812 51.609375 142.03125 C 57.855469 137.347656 71.195312 128 96 128 Z M 48.4375 138.71875 C 49.40625 139.785156 50.378906 140.847656 51.40625 141.84375 C 50.375 140.84375 49.398438 139.785156 48.4375 138.71875 Z M 143.296875 139 C 142.417969 139.964844 141.542969 140.933594 140.609375 141.84375 C 141.539062 140.941406 142.410156 139.960938 143.296875 139 Z M 143.296875 139 "/>
</g>
</svg>
