<?xml version="1.0" encoding="UTF-8"?>
<svg xmlns="http://www.w3.org/2000/svg" xmlns:xlink="http://www.w3.org/1999/xlink" viewBox="0 0 96 96" width="96px" height="96px">
<g id="surface9951429">
<path style=" stroke:none;fill-rule:nonzero;fill:rgb(50.196081%,54.901963%,62.352943%);fill-opacity:1;" d="M 48 8 C 25.957031 8 8 25.957031 8 48 C 8 70.042969 25.957031 88 48 88 C 70.042969 88 88 70.042969 88 48 C 88 25.957031 70.042969 8 48 8 Z M 48 16 C 65.71875 16 80 30.28125 80 48 C 80 65.71875 65.71875 80 48 80 C 30.28125 80 16 65.71875 16 48 C 16 30.28125 30.28125 16 48 16 Z M 44 24 L 44 49.65625 L 61.171875 66.828125 L 66.828125 61.171875 L 52 46.34375 L 52 24 Z M 44 24 "/>
</g>
</svg>
