<svg fill="#000000" xmlns="http://www.w3.org/2000/svg"  viewBox="0 0 24 24" width="24px" height="24px"><path d="M 16 1 L 16 2.1992188 C 15 2.4992187 14 3.4 14 5 C 14 6.9 15.599609 7.5003906 16.599609 7.9003906 C 17.799609 8.4003906 18 8.5 18 9 C 18 9.5 17.8 10 17 10 C 16.2 10 16 9.5 16 9 L 14 9 C 14 10 14.6 11.400781 16 11.800781 L 16 13 L 18 13 L 18 11.800781 C 19.4 11.400781 20 10 20 9 C 20 7.1 18.400391 6.4996094 17.400391 6.0996094 C 16.200391 5.5996094 16 5.5 16 5 C 16 4.2 16.5 4 17 4 C 17.8 4 18 4.5 18 5 L 19 5 L 20 5 C 20 4 19.4 2.5992187 18 2.1992188 L 18 1 L 16 1 z M 7 5 C 5.2777778 5 3.6835938 5.5507812 3.6835938 5.5507812 L 2.1894531 6.0488281 L 3.2753906 7.1894531 C 3.9451269 7.8924545 4.3208957 9.1134807 4.8164062 10.333984 C 5.0641616 10.944236 5.3478147 11.564074 5.8515625 12.091797 C 6.3553103 12.61952 7.1319495 12.99459 7.9960938 12.998047 C 8.5820856 13.000347 8.9923791 12.809171 9.4472656 12.582031 C 9.7722773 12.419742 10.077174 12.215352 10.365234 11.986328 C 11.244277 12.558845 12 13.12229 12 15 L 6 15 L 6 17 L 7 17 L 7 17.099609 L 7.859375 21.392578 C 8.0457293 22.320384 8.8737108 23 9.8203125 23 L 16.179688 23 C 17.126289 23 17.954271 22.320385 18.140625 21.392578 L 19 17.099609 L 19 17 L 20 17 L 20 15 L 14 15 C 14 12.59861 12.648537 11.203393 11.654297 10.443359 C 11.854946 10.038078 12 9.5623647 12 9 C 12 7.6666667 11.268034 6.5601996 10.304688 5.9179688 C 9.3413408 5.2757379 8.1666667 5 7 5 z M 7 7 C 7.8333333 7 8.6586587 7.2242622 9.1953125 7.5820312 C 9.7319663 7.9398004 10 8.3333333 10 9 C 10 9.6666667 9.7929688 9.7929686 9.2929688 10.292969 C 9.1608198 10.425118 8.8478479 10.645609 8.5527344 10.792969 C 8.2576209 10.940329 7.9179144 10.997703 8.0039062 10.998047 C 7.6180505 10.996503 7.4963303 10.917839 7.2988281 10.710938 C 7.101326 10.504034 6.8812133 10.107279 6.6679688 9.5820312 C 6.3972497 8.9152169 6.0697162 8.0722649 5.6308594 7.2285156 C 6.1457605 7.1141152 6.3481436 7 7 7 z M 9.0195312 17 L 16.980469 17 L 16.179688 21 L 9.8203125 21 L 9.0195312 17 z"/></svg>